<?xml version="1.0" standalone="no"?>
<!DOCTYPE svg PUBLIC "-//W3C//DTD SVG 20010904//EN"
 "http://www.w3.org/TR/2001/REC-SVG-20010904/DTD/svg10.dtd">
<svg version="1.0" xmlns="http://www.w3.org/2000/svg"
 width="1023.000000pt" height="1023.000000pt" viewBox="0 0 1023.000000 1023.000000"
 preserveAspectRatio="xMidYMid meet">

<g transform="translate(0.000000,1023.000000) scale(0.100000,-0.100000)"
fill="#000000" stroke="none">
<path d="M820 9893 c-216 -38 -390 -192 -466 -413 -18 -52 -19 -94 -19 -735 0
-636 1 -684 19 -735 63 -189 185 -316 366 -386 l75 -29 690 0 690 0 67 26
c186 72 308 197 370 378 l23 66 0 685 0 685 -28 74 c-69 178 -186 293 -373
363 -59 23 -61 23 -724 24 -366 1 -676 0 -690 -3z m1250 -364 c117 -56 180
-130 224 -265 15 -46 16 -105 14 -540 l-3 -489 -36 -75 c-46 -95 -104 -153
-199 -199 l-75 -36 -485 -3 c-520 -3 -527 -3 -630 49 -78 38 -137 101 -179
189 l-36 75 0 510 0 510 36 75 c41 86 101 150 174 187 102 53 96 52 625 50
l495 -2 75 -36z"/>
<path d="M1184 9231 c-86 -22 -161 -96 -185 -184 -6 -25 -9 -146 -7 -326 l3
-286 30 -54 c32 -58 90 -103 155 -121 46 -13 564 -13 610 0 71 19 126 64 156
127 l29 58 3 282 c2 172 -1 297 -7 320 -18 68 -63 126 -122 158 l-54 30 -290
2 c-159 1 -304 -2 -321 -6z"/>
<path d="M8080 9893 c-104 -18 -233 -83 -308 -156 -68 -65 -112 -134 -149
-228 l-28 -74 0 -685 0 -685 23 -66 c62 -181 184 -306 370 -378 l67 -26 690 0
690 0 59 22 c191 73 315 198 378 382 l23 66 0 680 0 680 -23 66 c-63 184 -188
309 -378 381 -59 23 -62 23 -724 24 -366 1 -676 0 -690 -3z m1250 -364 c95
-46 153 -104 199 -199 l36 -75 0 -510 0 -510 -36 -75 c-46 -95 -104 -153 -199
-199 l-75 -36 -489 -3 c-413 -2 -496 0 -541 12 -122 36 -208 110 -264 226
l-36 75 0 510 0 510 36 75 c41 86 101 150 174 187 102 53 96 52 625 50 l495
-2 75 -36z"/>
<path d="M8440 9231 c-74 -23 -126 -66 -164 -136 -20 -38 -21 -52 -21 -350 l0
-310 29 -53 c32 -58 94 -105 159 -123 25 -6 146 -9 326 -7 l286 3 54 30 c64
35 104 92 121 169 8 33 11 146 8 326 l-3 275 -31 55 c-35 61 -106 113 -171
124 -54 8 -563 6 -593 -3z"/>
<path d="M3392 9860 c-88 -54 -96 -166 -17 -240 23 -21 36 -25 90 -25 54 0 67
4 90 25 37 35 55 72 55 117 0 76 -68 143 -145 143 -22 0 -54 -9 -73 -20z"/>
<path d="M3722 9860 c-88 -54 -96 -166 -17 -240 23 -21 36 -25 90 -25 54 0 67
4 90 25 37 35 55 72 55 117 0 76 -68 143 -145 143 -22 0 -54 -9 -73 -20z"/>
<path d="M4052 9860 c-88 -54 -96 -166 -17 -240 23 -21 36 -25 90 -25 54 0 67
4 90 25 37 35 55 72 55 117 0 76 -68 143 -145 143 -22 0 -54 -9 -73 -20z"/>
<path d="M4712 9860 c-88 -54 -96 -166 -17 -240 23 -21 36 -25 90 -25 54 0 67
4 90 25 37 35 55 72 55 117 0 76 -68 143 -145 143 -22 0 -54 -9 -73 -20z"/>
<path d="M5042 9860 c-88 -54 -96 -166 -17 -240 23 -21 36 -25 90 -25 54 0 67
4 90 25 37 35 55 72 55 117 0 76 -68 143 -145 143 -22 0 -54 -9 -73 -20z"/>
<path d="M5375 9861 c-49 -30 -68 -58 -73 -109 -5 -55 10 -92 53 -132 23 -21
36 -25 90 -25 54 0 67 4 90 25 37 35 55 72 55 117 0 106 -126 179 -215 124z"/>
<path d="M6692 9860 c-88 -54 -96 -166 -17 -240 23 -21 36 -25 90 -25 54 0 67
4 90 25 37 35 55 72 55 117 0 76 -68 143 -145 143 -22 0 -54 -9 -73 -20z"/>
<path d="M4052 9530 c-18 -11 -41 -34 -52 -52 -40 -66 -17 -155 52 -199 46
-28 128 -22 164 12 102 95 45 259 -91 259 -22 0 -54 -9 -73 -20z"/>
<path d="M4382 9530 c-88 -54 -96 -166 -17 -240 23 -21 36 -25 90 -25 54 0 67
4 90 25 37 35 55 72 55 117 0 76 -68 143 -145 143 -22 0 -54 -9 -73 -20z"/>
<path d="M5372 9530 c-88 -54 -96 -166 -17 -240 23 -21 36 -25 90 -25 54 0 67
4 90 25 37 35 55 72 55 117 0 76 -68 143 -145 143 -22 0 -54 -9 -73 -20z"/>
<path d="M6032 9530 c-88 -54 -96 -166 -17 -240 23 -21 36 -25 90 -25 54 0 67
4 90 25 37 35 55 72 55 117 0 76 -68 143 -145 143 -22 0 -54 -9 -73 -20z"/>
<path d="M6362 9530 c-88 -54 -96 -166 -18 -239 19 -18 40 -25 78 -28 62 -5
106 18 138 69 40 66 16 156 -52 198 -19 11 -51 20 -73 20 -22 0 -54 -9 -73
-20z"/>
<path d="M7022 9530 c-88 -54 -96 -166 -17 -240 23 -21 36 -25 90 -25 54 0 67
4 90 25 37 35 55 72 55 117 0 76 -68 143 -145 143 -22 0 -54 -9 -73 -20z"/>
<path d="M3394 9201 c-56 -34 -77 -75 -72 -137 4 -47 10 -61 42 -92 34 -35 40
-37 100 -37 55 0 68 4 91 25 37 35 55 72 55 117 0 107 -126 179 -216 124z"/>
<path d="M3722 9200 c-88 -54 -96 -166 -17 -240 23 -21 36 -25 90 -25 54 0 67
4 90 25 37 35 55 72 55 117 0 76 -68 143 -145 143 -22 0 -54 -9 -73 -20z"/>
<path d="M4052 9200 c-88 -54 -96 -166 -18 -239 36 -34 118 -40 164 -12 125
79 73 271 -73 271 -22 0 -54 -9 -73 -20z"/>
<path d="M5042 9200 c-52 -32 -74 -76 -69 -138 3 -46 9 -59 41 -90 34 -35 40
-37 100 -37 55 0 68 4 91 25 37 35 55 72 55 117 0 76 -68 143 -145 143 -22 0
-54 -9 -73 -20z"/>
<path d="M5702 9200 c-88 -54 -96 -166 -17 -240 23 -21 36 -25 90 -25 54 0 67
4 90 25 37 35 55 72 55 117 0 76 -68 143 -145 143 -22 0 -54 -9 -73 -20z"/>
<path d="M6362 9200 c-88 -54 -96 -166 -17 -240 23 -21 36 -25 90 -25 54 0 67
4 90 25 37 35 55 72 55 117 0 76 -68 143 -145 143 -22 0 -54 -9 -73 -20z"/>
<path d="M7022 9200 c-18 -11 -41 -34 -52 -52 -40 -66 -17 -155 52 -199 46
-28 128 -22 164 12 37 35 54 72 54 120 0 105 -127 174 -218 119z"/>
<path d="M3062 8870 c-18 -11 -41 -34 -52 -52 -40 -66 -17 -155 52 -199 46
-28 128 -22 164 12 102 95 45 259 -91 259 -22 0 -54 -9 -73 -20z"/>
<path d="M3722 8870 c-88 -54 -96 -166 -18 -239 36 -34 118 -40 164 -12 125
79 73 271 -73 271 -22 0 -54 -9 -73 -20z"/>
<path d="M4052 8870 c-88 -54 -96 -166 -17 -240 23 -21 36 -25 90 -25 54 0 67
4 90 25 37 35 55 72 55 117 0 76 -68 143 -145 143 -22 0 -54 -9 -73 -20z"/>
<path d="M5042 8870 c-88 -54 -96 -166 -17 -240 23 -21 36 -25 90 -25 54 0 67
4 90 25 37 35 55 72 55 117 0 76 -68 143 -145 143 -22 0 -54 -9 -73 -20z"/>
<path d="M5372 8870 c-88 -54 -96 -166 -17 -240 23 -21 36 -25 90 -25 54 0 67
4 90 25 37 35 55 72 55 117 0 76 -68 143 -145 143 -22 0 -54 -9 -73 -20z"/>
<path d="M5702 8870 c-88 -54 -96 -166 -17 -240 23 -21 36 -25 90 -25 54 0 67
4 90 25 37 35 55 72 55 117 0 76 -68 143 -145 143 -22 0 -54 -9 -73 -20z"/>
<path d="M7022 8870 c-18 -11 -41 -34 -52 -52 -40 -66 -17 -155 52 -199 46
-28 128 -22 164 12 102 95 45 259 -91 259 -22 0 -54 -9 -73 -20z"/>
<path d="M3065 8541 c-49 -30 -68 -58 -73 -109 -5 -55 10 -92 53 -132 23 -21
36 -25 90 -25 54 0 67 4 90 25 37 35 55 72 55 117 0 106 -126 179 -215 124z"/>
<path d="M3722 8540 c-88 -54 -96 -166 -17 -240 23 -21 36 -25 90 -25 54 0 67
4 90 25 37 35 55 72 55 117 0 76 -68 143 -145 143 -22 0 -54 -9 -73 -20z"/>
<path d="M4382 8540 c-52 -32 -74 -76 -69 -138 3 -46 9 -59 41 -90 34 -35 40
-37 100 -37 55 0 68 4 91 25 37 35 55 72 55 117 0 76 -68 143 -145 143 -22 0
-54 -9 -73 -20z"/>
<path d="M4712 8540 c-88 -54 -96 -166 -17 -240 23 -21 36 -25 90 -25 54 0 67
4 90 25 43 40 58 77 53 132 -10 103 -127 162 -216 108z"/>
<path d="M5042 8540 c-88 -54 -96 -166 -17 -240 23 -21 36 -25 90 -25 54 0 67
4 90 25 37 35 55 72 55 117 0 76 -68 143 -145 143 -22 0 -54 -9 -73 -20z"/>
<path d="M5374 8541 c-91 -56 -100 -165 -19 -241 23 -21 36 -25 90 -25 54 0
67 4 90 25 37 35 55 72 55 117 0 107 -126 179 -216 124z"/>
<path d="M6034 8541 c-56 -34 -77 -75 -72 -137 4 -47 10 -61 42 -92 34 -35 40
-37 100 -37 55 0 68 4 91 25 37 35 55 72 55 117 0 107 -126 179 -216 124z"/>
<path d="M6362 8540 c-88 -54 -96 -166 -17 -240 23 -21 36 -25 90 -25 54 0 67
4 90 25 37 35 55 72 55 117 0 76 -68 143 -145 143 -22 0 -54 -9 -73 -20z"/>
<path d="M6692 8540 c-88 -54 -96 -166 -17 -240 23 -21 36 -25 90 -25 54 0 67
4 90 25 37 35 55 72 55 117 0 76 -68 143 -145 143 -22 0 -54 -9 -73 -20z"/>
<path d="M7022 8540 c-88 -54 -96 -166 -17 -240 23 -21 36 -25 90 -25 54 0 67
4 90 25 37 35 55 72 55 117 0 76 -68 143 -145 143 -22 0 -54 -9 -73 -20z"/>
<path d="M3392 8210 c-88 -54 -96 -166 -17 -240 23 -21 36 -25 90 -25 54 0 67
4 90 25 37 35 55 72 55 117 0 76 -68 143 -145 143 -22 0 -54 -9 -73 -20z"/>
<path d="M3722 8210 c-88 -54 -96 -166 -17 -240 23 -21 36 -25 90 -25 54 0 67
4 90 25 37 35 55 72 55 117 0 76 -68 143 -145 143 -22 0 -54 -9 -73 -20z"/>
<path d="M4712 8210 c-88 -54 -96 -166 -17 -240 23 -21 36 -25 90 -25 54 0 67
4 90 25 37 35 55 72 55 117 0 76 -68 143 -145 143 -22 0 -54 -9 -73 -20z"/>
<path d="M5042 8210 c-88 -54 -96 -166 -17 -240 23 -21 36 -25 90 -25 54 0 67
4 90 25 37 35 55 72 55 117 0 76 -68 143 -145 143 -22 0 -54 -9 -73 -20z"/>
<path d="M5702 8210 c-88 -54 -96 -166 -17 -240 23 -21 36 -25 90 -25 54 0 67
4 90 25 37 35 55 72 55 117 0 76 -68 143 -145 143 -22 0 -54 -9 -73 -20z"/>
<path d="M3062 7880 c-88 -54 -96 -166 -17 -240 23 -21 36 -25 90 -25 54 0 67
4 90 25 37 35 55 72 55 117 0 76 -68 143 -145 143 -22 0 -54 -9 -73 -20z"/>
<path d="M3722 7880 c-88 -54 -96 -166 -17 -240 23 -21 36 -25 90 -25 54 0 67
4 90 25 37 35 55 72 55 117 0 76 -68 143 -145 143 -22 0 -54 -9 -73 -20z"/>
<path d="M4382 7880 c-88 -54 -96 -166 -17 -240 23 -21 36 -25 90 -25 54 0 67
4 90 25 37 35 55 72 55 117 0 76 -68 143 -145 143 -22 0 -54 -9 -73 -20z"/>
<path d="M5042 7880 c-88 -54 -96 -166 -17 -240 23 -21 36 -25 90 -25 54 0 67
4 90 25 37 35 55 72 55 117 0 76 -68 143 -145 143 -22 0 -54 -9 -73 -20z"/>
<path d="M5702 7880 c-88 -54 -96 -166 -17 -240 23 -21 36 -25 90 -25 54 0 67
4 90 25 37 35 55 72 55 117 0 76 -68 143 -145 143 -22 0 -54 -9 -73 -20z"/>
<path d="M6365 7881 c-49 -30 -68 -58 -73 -109 -5 -55 10 -92 53 -132 23 -21
36 -25 90 -25 54 0 67 4 90 25 37 35 55 72 55 117 0 106 -126 179 -215 124z"/>
<path d="M7022 7880 c-88 -54 -96 -166 -17 -240 23 -21 36 -25 90 -25 54 0 67
4 90 25 37 35 55 72 55 117 0 76 -68 143 -145 143 -22 0 -54 -9 -73 -20z"/>
<path d="M3392 7550 c-88 -54 -96 -166 -18 -239 36 -34 118 -40 164 -12 125
79 73 271 -73 271 -22 0 -54 -9 -73 -20z"/>
<path d="M4382 7550 c-88 -54 -96 -166 -17 -240 23 -21 36 -25 90 -25 54 0 67
4 90 25 37 35 55 72 55 117 0 76 -68 143 -145 143 -22 0 -54 -9 -73 -20z"/>
<path d="M4712 7550 c-88 -54 -96 -166 -17 -240 23 -21 36 -25 90 -25 54 0 67
4 90 25 37 35 55 72 55 117 0 76 -68 143 -145 143 -22 0 -54 -9 -73 -20z"/>
<path d="M5372 7550 c-52 -32 -74 -76 -69 -138 3 -46 9 -59 41 -90 34 -35 40
-37 100 -37 55 0 68 4 91 25 37 35 55 72 55 117 0 76 -68 143 -145 143 -22 0
-54 -9 -73 -20z"/>
<path d="M5702 7550 c-52 -32 -74 -76 -69 -138 3 -46 9 -59 41 -90 34 -35 40
-37 100 -37 55 0 68 4 91 25 37 35 55 72 55 117 0 76 -68 143 -145 143 -22 0
-54 -9 -73 -20z"/>
<path d="M6362 7550 c-88 -54 -96 -166 -17 -240 23 -21 36 -25 90 -25 54 0 67
4 90 25 37 35 55 72 55 117 0 76 -68 143 -145 143 -22 0 -54 -9 -73 -20z"/>
<path d="M6692 7550 c-88 -54 -96 -166 -17 -240 23 -21 36 -25 90 -25 54 0 67
4 90 25 37 35 55 72 55 117 0 76 -68 143 -145 143 -22 0 -54 -9 -73 -20z"/>
<path d="M7022 7550 c-88 -54 -96 -166 -17 -240 23 -21 36 -25 90 -25 54 0 67
4 90 25 37 35 55 72 55 117 0 76 -68 143 -145 143 -22 0 -54 -9 -73 -20z"/>
<path d="M422 7220 c-88 -54 -96 -166 -18 -239 36 -34 118 -40 164 -12 125 79
73 271 -73 271 -22 0 -54 -9 -73 -20z"/>
<path d="M752 7220 c-52 -32 -74 -76 -69 -138 3 -46 9 -59 41 -90 34 -35 40
-37 100 -37 55 0 68 4 91 25 37 35 55 72 55 117 0 76 -68 143 -145 143 -22 0
-54 -9 -73 -20z"/>
<path d="M2072 7220 c-88 -54 -96 -166 -17 -240 23 -21 36 -25 90 -25 54 0 67
4 90 25 37 35 55 72 55 117 0 76 -68 143 -145 143 -22 0 -54 -9 -73 -20z"/>
<path d="M2402 7220 c-88 -54 -96 -166 -17 -240 23 -21 36 -25 90 -25 54 0 67
4 90 25 37 35 55 72 55 117 0 76 -68 143 -145 143 -22 0 -54 -9 -73 -20z"/>
<path d="M2732 7220 c-88 -54 -96 -166 -17 -240 23 -21 36 -25 90 -25 54 0 67
4 90 25 37 35 55 72 55 117 0 76 -68 143 -145 143 -22 0 -54 -9 -73 -20z"/>
<path d="M3392 7220 c-52 -32 -74 -76 -69 -138 3 -46 9 -59 41 -90 34 -35 40
-37 100 -37 55 0 68 4 91 25 37 35 55 72 55 117 0 76 -68 143 -145 143 -22 0
-54 -9 -73 -20z"/>
<path d="M3722 7220 c-52 -32 -74 -76 -69 -138 3 -46 9 -59 41 -90 34 -35 40
-37 100 -37 55 0 68 4 91 25 37 35 55 72 55 117 0 76 -68 143 -145 143 -22 0
-54 -9 -73 -20z"/>
<path d="M4382 7220 c-88 -54 -96 -166 -17 -240 23 -21 36 -25 90 -25 54 0 67
4 90 25 37 35 55 72 55 117 0 76 -68 143 -145 143 -22 0 -54 -9 -73 -20z"/>
<path d="M5042 7220 c-88 -54 -96 -166 -17 -240 23 -21 36 -25 90 -25 54 0 67
4 90 25 37 35 55 72 55 117 0 76 -68 143 -145 143 -22 0 -54 -9 -73 -20z"/>
<path d="M5375 7221 c-49 -30 -68 -58 -73 -109 -5 -55 10 -92 53 -132 23 -21
36 -25 90 -25 54 0 67 4 90 25 37 35 55 72 55 117 0 106 -126 179 -215 124z"/>
<path d="M5702 7220 c-88 -54 -96 -166 -18 -239 19 -18 40 -25 78 -28 62 -5
106 18 138 69 40 66 16 156 -52 198 -19 11 -51 20 -73 20 -22 0 -54 -9 -73
-20z"/>
<path d="M6032 7220 c-52 -32 -74 -76 -69 -138 3 -46 9 -59 41 -90 34 -35 40
-37 100 -37 55 0 68 4 91 25 37 35 55 72 55 117 0 76 -68 143 -145 143 -22 0
-54 -9 -73 -20z"/>
<path d="M7022 7220 c-88 -54 -96 -166 -17 -240 23 -21 36 -25 90 -25 54 0 67
4 90 25 37 35 55 72 55 117 0 76 -68 143 -145 143 -22 0 -54 -9 -73 -20z"/>
<path d="M8342 7220 c-88 -54 -96 -166 -18 -239 19 -18 40 -25 78 -28 62 -5
106 18 138 69 40 66 16 156 -52 198 -19 11 -51 20 -73 20 -22 0 -54 -9 -73
-20z"/>
<path d="M8672 7220 c-52 -32 -74 -76 -69 -138 3 -46 9 -59 41 -90 34 -35 40
-37 100 -37 55 0 68 4 91 25 37 35 55 72 55 117 0 76 -68 143 -145 143 -22 0
-54 -9 -73 -20z"/>
<path d="M422 6890 c-88 -54 -96 -166 -17 -240 23 -21 36 -25 90 -25 54 0 67
4 90 25 37 35 55 72 55 117 0 76 -68 143 -145 143 -22 0 -54 -9 -73 -20z"/>
<path d="M752 6890 c-88 -54 -96 -166 -17 -240 23 -21 36 -25 90 -25 54 0 67
4 90 25 37 35 55 72 55 117 0 76 -68 143 -145 143 -22 0 -54 -9 -73 -20z"/>
<path d="M2072 6890 c-88 -54 -96 -166 -17 -240 23 -21 36 -25 90 -25 54 0 67
4 90 25 37 35 55 72 55 117 0 76 -68 143 -145 143 -22 0 -54 -9 -73 -20z"/>
<path d="M3725 6891 c-49 -30 -68 -58 -73 -109 -5 -54 10 -92 52 -131 36 -34
118 -40 164 -12 95 60 95 193 0 251 -41 25 -104 26 -143 1z"/>
<path d="M5042 6890 c-88 -54 -96 -166 -17 -240 23 -21 36 -25 90 -25 54 0 67
4 90 25 37 35 55 72 55 117 0 76 -68 143 -145 143 -22 0 -54 -9 -73 -20z"/>
<path d="M5372 6890 c-88 -54 -96 -166 -17 -240 23 -21 36 -25 90 -25 54 0 67
4 90 25 37 35 55 72 55 117 0 76 -68 143 -145 143 -22 0 -54 -9 -73 -20z"/>
<path d="M5702 6890 c-88 -54 -96 -166 -17 -240 23 -21 36 -25 90 -25 54 0 67
4 90 25 37 35 55 72 55 117 0 76 -68 143 -145 143 -22 0 -54 -9 -73 -20z"/>
<path d="M6362 6890 c-88 -54 -96 -166 -18 -239 19 -18 40 -25 78 -28 62 -5
106 18 138 69 40 66 16 156 -52 198 -19 11 -51 20 -73 20 -22 0 -54 -9 -73
-20z"/>
<path d="M6692 6890 c-18 -11 -41 -34 -52 -52 -40 -66 -17 -155 52 -199 46
-28 128 -22 164 12 102 95 45 259 -91 259 -22 0 -54 -9 -73 -20z"/>
<path d="M7352 6890 c-88 -54 -96 -166 -17 -240 23 -21 36 -25 91 -25 60 0 66
2 100 37 32 31 38 44 41 90 3 41 -1 60 -16 86 -28 43 -77 72 -126 72 -22 0
-54 -9 -73 -20z"/>
<path d="M8012 6890 c-88 -54 -96 -166 -17 -240 23 -21 36 -25 90 -25 54 0 67
4 90 25 37 35 55 72 55 117 0 76 -68 143 -145 143 -22 0 -54 -9 -73 -20z"/>
<path d="M8342 6890 c-88 -54 -96 -166 -17 -240 23 -21 36 -25 90 -25 54 0 67
4 90 25 37 35 55 72 55 117 0 76 -68 143 -145 143 -22 0 -54 -9 -73 -20z"/>
<path d="M9005 6891 c-49 -30 -68 -58 -73 -109 -5 -54 10 -92 52 -131 36 -34
118 -40 164 -12 43 28 72 77 72 126 0 108 -125 182 -215 126z"/>
<path d="M9332 6890 c-18 -11 -41 -34 -52 -52 -40 -66 -17 -155 52 -199 46
-28 128 -22 164 12 102 95 45 259 -91 259 -22 0 -54 -9 -73 -20z"/>
<path d="M1082 6560 c-88 -54 -96 -166 -17 -240 23 -21 36 -25 90 -25 54 0 67
4 90 25 37 35 55 72 55 117 0 76 -68 143 -145 143 -22 0 -54 -9 -73 -20z"/>
<path d="M2402 6560 c-52 -32 -74 -76 -69 -138 3 -46 9 -59 41 -90 34 -35 40
-37 100 -37 55 0 68 4 91 25 37 35 55 72 55 117 0 76 -68 143 -145 143 -22 0
-54 -9 -73 -20z"/>
<path d="M2732 6560 c-52 -32 -74 -76 -69 -138 3 -46 9 -59 41 -90 34 -35 40
-37 100 -37 55 0 68 4 91 25 37 35 55 72 55 117 0 76 -68 143 -145 143 -22 0
-54 -9 -73 -20z"/>
<path d="M3394 6561 c-56 -34 -77 -75 -72 -137 4 -47 10 -61 42 -92 34 -35 40
-37 100 -37 55 0 68 4 91 25 37 35 55 72 55 117 0 107 -126 179 -216 124z"/>
<path d="M4052 6560 c-88 -54 -96 -166 -17 -240 23 -21 36 -25 90 -25 54 0 67
4 90 25 37 35 55 72 55 117 0 76 -68 143 -145 143 -22 0 -54 -9 -73 -20z"/>
<path d="M4382 6560 c-88 -54 -96 -166 -17 -240 23 -21 36 -25 90 -25 54 0 67
4 90 25 38 36 55 73 55 121 0 105 -127 174 -218 119z"/>
<path d="M5372 6560 c-52 -32 -74 -76 -69 -138 3 -46 9 -59 41 -90 34 -35 40
-37 100 -37 55 0 68 4 91 25 37 35 55 72 55 117 0 76 -68 143 -145 143 -22 0
-54 -9 -73 -20z"/>
<path d="M5704 6561 c-91 -56 -100 -165 -19 -241 23 -21 36 -25 90 -25 54 0
67 4 90 25 37 35 55 72 55 117 0 107 -126 179 -216 124z"/>
<path d="M7352 6560 c-88 -54 -96 -166 -17 -240 23 -21 36 -25 90 -25 54 0 67
4 90 25 37 35 55 72 55 117 0 76 -68 143 -145 143 -22 0 -54 -9 -73 -20z"/>
<path d="M8012 6560 c-52 -32 -74 -76 -69 -138 3 -46 9 -59 41 -90 34 -35 40
-37 100 -37 55 0 68 4 91 25 37 35 55 72 55 117 0 76 -68 143 -145 143 -22 0
-54 -9 -73 -20z"/>
<path d="M8344 6561 c-91 -56 -100 -165 -19 -241 23 -21 36 -25 90 -25 54 0
67 4 90 25 37 35 55 72 55 117 0 107 -126 179 -216 124z"/>
<path d="M755 6231 c-49 -30 -68 -58 -73 -109 -5 -54 10 -92 52 -131 36 -34
118 -40 164 -12 95 60 95 193 0 251 -41 25 -104 26 -143 1z"/>
<path d="M1082 6230 c-52 -32 -74 -76 -69 -138 3 -46 9 -59 41 -90 34 -35 40
-37 100 -37 55 0 68 4 91 25 37 35 55 72 55 117 0 76 -68 143 -145 143 -22 0
-54 -9 -73 -20z"/>
<path d="M1742 6230 c-88 -54 -96 -166 -17 -240 23 -21 36 -25 90 -25 54 0 67
4 90 25 37 35 55 72 55 117 0 76 -68 143 -145 143 -22 0 -54 -9 -73 -20z"/>
<path d="M2072 6230 c-88 -54 -96 -166 -17 -240 23 -21 36 -25 90 -25 54 0 67
4 90 25 37 35 55 72 55 117 0 76 -68 143 -145 143 -22 0 -54 -9 -73 -20z"/>
<path d="M3722 6230 c-88 -54 -96 -166 -18 -239 36 -34 118 -40 164 -12 125
79 73 271 -73 271 -22 0 -54 -9 -73 -20z"/>
<path d="M4052 6230 c-88 -54 -96 -166 -17 -240 23 -21 36 -25 90 -25 54 0 67
4 90 25 37 35 55 72 55 117 0 76 -68 143 -145 143 -22 0 -54 -9 -73 -20z"/>
<path d="M5042 6230 c-88 -54 -96 -166 -17 -240 23 -21 36 -25 90 -25 54 0 67
4 90 25 37 35 55 72 55 117 0 76 -68 143 -145 143 -22 0 -54 -9 -73 -20z"/>
<path d="M5702 6230 c-18 -11 -41 -34 -52 -52 -40 -66 -17 -155 52 -199 46
-28 128 -22 164 12 102 95 45 259 -91 259 -22 0 -54 -9 -73 -20z"/>
<path d="M6362 6230 c-88 -54 -96 -166 -17 -240 23 -21 36 -25 90 -25 54 0 67
4 90 25 37 35 55 72 55 117 0 76 -68 143 -145 143 -22 0 -54 -9 -73 -20z"/>
<path d="M6692 6230 c-88 -54 -96 -166 -17 -240 23 -21 36 -25 90 -25 54 0 67
4 90 25 37 35 55 72 55 117 0 76 -68 143 -145 143 -22 0 -54 -9 -73 -20z"/>
<path d="M7352 6230 c-88 -54 -96 -166 -18 -239 19 -18 40 -25 78 -28 62 -5
106 18 138 69 40 66 16 156 -52 198 -19 11 -51 20 -73 20 -22 0 -54 -9 -73
-20z"/>
<path d="M7682 6230 c-88 -54 -96 -166 -17 -240 23 -21 36 -25 90 -25 54 0 67
4 90 25 37 35 55 72 55 117 0 76 -68 143 -145 143 -22 0 -54 -9 -73 -20z"/>
<path d="M8015 6231 c-49 -30 -68 -58 -73 -109 -5 -55 10 -92 53 -132 23 -21
36 -25 90 -25 54 0 67 4 90 25 37 35 55 72 55 117 0 106 -126 179 -215 124z"/>
<path d="M8675 6231 c-49 -30 -68 -58 -73 -109 -5 -54 10 -92 52 -131 36 -34
118 -40 164 -12 43 28 72 77 72 126 0 108 -125 182 -215 126z"/>
<path d="M2402 5900 c-88 -54 -96 -166 -17 -240 23 -21 36 -25 90 -25 54 0 67
4 90 25 37 35 55 72 55 117 0 76 -68 143 -145 143 -22 0 -54 -9 -73 -20z"/>
<path d="M2734 5901 c-91 -56 -100 -165 -19 -241 23 -21 36 -25 90 -25 54 0
67 4 90 25 37 35 55 72 55 117 0 107 -126 179 -216 124z"/>
<path d="M3065 5901 c-49 -30 -68 -58 -73 -109 -5 -55 10 -92 53 -132 23 -21
36 -25 90 -25 54 0 67 4 90 25 37 35 55 72 55 117 0 106 -126 179 -215 124z"/>
<path d="M3392 5900 c-52 -32 -74 -76 -69 -138 3 -46 9 -59 41 -90 34 -35 40
-37 100 -37 55 0 68 4 91 25 37 35 55 72 55 117 0 76 -68 143 -145 143 -22 0
-54 -9 -73 -20z"/>
<path d="M3722 5900 c-88 -54 -96 -166 -17 -240 23 -21 36 -25 90 -25 54 0 67
4 90 25 37 35 55 72 55 117 0 76 -68 143 -145 143 -22 0 -54 -9 -73 -20z"/>
<path d="M4712 5900 c-88 -54 -96 -166 -17 -240 23 -21 36 -25 90 -25 54 0 67
4 90 25 43 40 58 77 53 132 -10 103 -127 162 -216 108z"/>
<path d="M5042 5900 c-88 -54 -96 -166 -17 -240 23 -21 36 -25 90 -25 54 0 67
4 90 25 37 35 55 72 55 117 0 76 -68 143 -145 143 -22 0 -54 -9 -73 -20z"/>
<path d="M5705 5901 c-49 -30 -68 -58 -73 -109 -5 -55 10 -92 53 -132 23 -21
36 -25 90 -25 54 0 67 4 90 25 37 35 55 72 55 117 0 106 -126 179 -215 124z"/>
<path d="M7352 5900 c-88 -54 -96 -166 -17 -240 23 -21 36 -25 90 -25 54 0 67
4 90 25 43 40 58 77 53 132 -10 103 -127 162 -216 108z"/>
<path d="M7682 5900 c-88 -54 -96 -166 -17 -240 23 -21 36 -25 90 -25 54 0 67
4 90 25 37 35 55 72 55 117 0 76 -68 143 -145 143 -22 0 -54 -9 -73 -20z"/>
<path d="M8014 5901 c-91 -56 -100 -165 -19 -241 23 -21 36 -25 90 -25 54 0
67 4 90 25 37 35 55 72 55 117 0 107 -126 179 -216 124z"/>
<path d="M9662 5900 c-52 -32 -74 -76 -69 -138 3 -46 9 -59 41 -90 34 -35 40
-37 100 -37 55 0 68 4 91 25 37 35 55 72 55 117 0 76 -68 143 -145 143 -22 0
-54 -9 -73 -20z"/>
<path d="M422 5570 c-88 -54 -96 -166 -17 -240 23 -21 36 -25 90 -25 54 0 67
4 90 25 37 35 55 72 55 117 0 76 -68 143 -145 143 -22 0 -54 -9 -73 -20z"/>
<path d="M1082 5570 c-88 -54 -96 -166 -17 -240 23 -21 36 -25 90 -25 54 0 67
4 90 25 37 35 55 72 55 117 0 76 -68 143 -145 143 -22 0 -54 -9 -73 -20z"/>
<path d="M1412 5570 c-88 -54 -96 -166 -17 -240 23 -21 36 -25 90 -25 54 0 67
4 90 25 37 35 55 72 55 117 0 76 -68 143 -145 143 -22 0 -54 -9 -73 -20z"/>
<path d="M1742 5570 c-88 -54 -96 -166 -17 -240 23 -21 36 -25 90 -25 54 0 67
4 90 25 37 35 55 72 55 117 0 76 -68 143 -145 143 -22 0 -54 -9 -73 -20z"/>
<path d="M3062 5570 c-88 -54 -96 -166 -17 -240 23 -21 36 -25 90 -25 54 0 67
4 90 25 37 35 55 72 55 117 0 76 -68 143 -145 143 -22 0 -54 -9 -73 -20z"/>
<path d="M3722 5570 c-88 -54 -96 -166 -17 -240 23 -21 36 -25 90 -25 54 0 67
4 90 25 37 35 55 72 55 117 0 76 -68 143 -145 143 -22 0 -54 -9 -73 -20z"/>
<path d="M4382 5570 c-88 -54 -96 -166 -17 -240 23 -21 36 -25 90 -25 54 0 67
4 90 25 37 35 55 72 55 117 0 76 -68 143 -145 143 -22 0 -54 -9 -73 -20z"/>
<path d="M4712 5570 c-88 -54 -96 -166 -17 -240 23 -21 36 -25 90 -25 54 0 67
4 90 25 37 35 55 72 55 117 0 76 -68 143 -145 143 -22 0 -54 -9 -73 -20z"/>
<path d="M5042 5570 c-88 -54 -96 -166 -17 -240 23 -21 36 -25 90 -25 54 0 67
4 90 25 37 35 55 72 55 117 0 76 -68 143 -145 143 -22 0 -54 -9 -73 -20z"/>
<path d="M5702 5570 c-88 -54 -96 -166 -17 -240 23 -21 36 -25 90 -25 54 0 67
4 90 25 37 35 55 72 55 117 0 76 -68 143 -145 143 -22 0 -54 -9 -73 -20z"/>
<path d="M7022 5570 c-88 -54 -96 -166 -17 -240 23 -21 36 -25 90 -25 54 0 67
4 90 25 37 35 55 72 55 117 0 76 -68 143 -145 143 -22 0 -54 -9 -73 -20z"/>
<path d="M7682 5570 c-88 -54 -96 -166 -17 -240 23 -21 36 -25 90 -25 54 0 67
4 90 25 37 35 55 72 55 117 0 76 -68 143 -145 143 -22 0 -54 -9 -73 -20z"/>
<path d="M8012 5570 c-88 -54 -96 -166 -17 -240 23 -21 36 -25 90 -25 54 0 67
4 90 25 37 35 55 72 55 117 0 76 -68 143 -145 143 -22 0 -54 -9 -73 -20z"/>
<path d="M8342 5570 c-88 -54 -96 -166 -17 -240 23 -21 36 -25 90 -25 54 0 67
4 90 25 37 35 55 72 55 117 0 76 -68 143 -145 143 -22 0 -54 -9 -73 -20z"/>
<path d="M9332 5570 c-88 -54 -96 -166 -17 -240 23 -21 36 -25 90 -25 54 0 67
4 90 25 37 35 55 72 55 117 0 76 -68 143 -145 143 -22 0 -54 -9 -73 -20z"/>
<path d="M9662 5570 c-88 -54 -96 -166 -17 -240 23 -21 36 -25 90 -25 54 0 67
4 90 25 37 35 55 72 55 117 0 76 -68 143 -145 143 -22 0 -54 -9 -73 -20z"/>
<path d="M422 5240 c-88 -54 -96 -166 -17 -240 23 -21 36 -25 90 -25 54 0 67
4 90 25 37 35 55 72 55 117 0 76 -68 143 -145 143 -22 0 -54 -9 -73 -20z"/>
<path d="M1085 5241 c-49 -30 -68 -58 -73 -109 -5 -55 10 -92 53 -132 23 -21
36 -25 90 -25 54 0 67 4 90 25 37 35 55 72 55 117 0 106 -126 179 -215 124z"/>
<path d="M1412 5240 c-88 -54 -96 -166 -17 -240 23 -21 36 -25 90 -25 54 0 67
4 90 25 37 35 55 72 55 117 0 76 -68 143 -145 143 -22 0 -54 -9 -73 -20z"/>
<path d="M1742 5240 c-88 -54 -96 -166 -17 -240 23 -21 36 -25 90 -25 54 0 67
4 90 25 37 35 55 72 55 117 0 76 -68 143 -145 143 -22 0 -54 -9 -73 -20z"/>
<path d="M2402 5240 c-88 -54 -96 -166 -17 -240 23 -21 36 -25 90 -25 54 0 67
4 90 25 37 35 55 72 55 117 0 76 -68 143 -145 143 -22 0 -54 -9 -73 -20z"/>
<path d="M2732 5240 c-88 -54 -96 -166 -17 -240 23 -21 36 -25 90 -25 54 0 67
4 90 25 37 35 55 72 55 117 0 76 -68 143 -145 143 -22 0 -54 -9 -73 -20z"/>
<path d="M3725 5241 c-49 -30 -68 -58 -73 -109 -5 -55 10 -92 53 -132 23 -21
36 -25 90 -25 54 0 67 4 90 25 37 35 55 72 55 117 0 106 -126 179 -215 124z"/>
<path d="M4712 5240 c-88 -54 -96 -166 -17 -240 23 -21 36 -25 90 -25 54 0 67
4 90 25 37 35 55 72 55 117 0 76 -68 143 -145 143 -22 0 -54 -9 -73 -20z"/>
<path d="M5042 5240 c-88 -54 -96 -166 -17 -240 23 -21 36 -25 90 -25 54 0 67
4 90 25 37 35 55 72 55 117 0 76 -68 143 -145 143 -22 0 -54 -9 -73 -20z"/>
<path d="M5372 5240 c-88 -54 -96 -166 -17 -240 23 -21 36 -25 90 -25 54 0 67
4 90 25 37 35 55 72 55 117 0 76 -68 143 -145 143 -22 0 -54 -9 -73 -20z"/>
<path d="M5702 5240 c-88 -54 -96 -166 -17 -240 23 -21 36 -25 90 -25 54 0 67
4 90 25 37 35 55 72 55 117 0 76 -68 143 -145 143 -22 0 -54 -9 -73 -20z"/>
<path d="M6365 5241 c-49 -30 -68 -58 -73 -109 -5 -55 10 -92 53 -132 23 -21
36 -25 90 -25 54 0 67 4 90 25 37 35 55 72 55 117 0 106 -126 179 -215 124z"/>
<path d="M7022 5240 c-88 -54 -96 -166 -17 -240 23 -21 36 -25 90 -25 54 0 67
4 90 25 37 35 55 72 55 117 0 76 -68 143 -145 143 -22 0 -54 -9 -73 -20z"/>
<path d="M7682 5240 c-88 -54 -96 -166 -17 -240 23 -21 36 -25 90 -25 54 0 67
4 90 25 37 35 55 72 55 117 0 76 -68 143 -145 143 -22 0 -54 -9 -73 -20z"/>
<path d="M8672 5240 c-18 -11 -41 -34 -52 -52 -40 -66 -17 -155 52 -199 46
-28 128 -22 164 12 102 95 45 259 -91 259 -22 0 -54 -9 -73 -20z"/>
<path d="M9005 5241 c-49 -30 -68 -58 -73 -109 -5 -55 10 -92 53 -132 23 -21
36 -25 90 -25 54 0 67 4 90 25 37 35 55 72 55 117 0 106 -126 179 -215 124z"/>
<path d="M422 4910 c-52 -32 -74 -76 -69 -138 3 -46 9 -59 41 -90 34 -35 40
-37 100 -37 55 0 68 4 91 25 37 35 55 72 55 117 0 76 -68 143 -145 143 -22 0
-54 -9 -73 -20z"/>
<path d="M752 4910 c-88 -54 -96 -166 -18 -239 36 -34 118 -40 164 -12 125 79
73 271 -73 271 -22 0 -54 -9 -73 -20z"/>
<path d="M1082 4910 c-52 -32 -74 -76 -69 -138 3 -46 9 -59 41 -90 34 -35 40
-37 100 -37 55 0 68 4 91 25 37 35 55 72 55 117 0 76 -68 143 -145 143 -22 0
-54 -9 -73 -20z"/>
<path d="M1742 4910 c-88 -54 -96 -166 -17 -240 23 -21 36 -25 90 -25 54 0 67
4 90 25 37 35 55 72 55 117 0 76 -68 143 -145 143 -22 0 -54 -9 -73 -20z"/>
<path d="M3392 4910 c-88 -54 -96 -166 -18 -239 19 -18 40 -25 78 -28 62 -5
106 18 138 69 40 66 16 156 -52 198 -19 11 -51 20 -73 20 -22 0 -54 -9 -73
-20z"/>
<path d="M4382 4910 c-88 -54 -96 -166 -17 -240 23 -21 36 -25 90 -25 54 0 67
4 90 25 37 35 55 72 55 117 0 76 -68 143 -145 143 -22 0 -54 -9 -73 -20z"/>
<path d="M4712 4910 c-88 -54 -96 -166 -17 -240 23 -21 36 -25 90 -25 54 0 67
4 90 25 37 35 55 72 55 117 0 76 -68 143 -145 143 -22 0 -54 -9 -73 -20z"/>
<path d="M5042 4910 c-88 -54 -96 -166 -17 -240 23 -21 36 -25 90 -25 54 0 67
4 90 25 37 35 55 72 55 117 0 76 -68 143 -145 143 -22 0 -54 -9 -73 -20z"/>
<path d="M5372 4910 c-52 -32 -74 -76 -69 -138 3 -46 9 -59 41 -90 34 -35 40
-37 100 -37 55 0 68 4 91 25 37 35 55 72 55 117 0 76 -68 143 -145 143 -22 0
-54 -9 -73 -20z"/>
<path d="M6362 4910 c-88 -54 -96 -166 -17 -240 23 -21 36 -25 90 -25 54 0 67
4 90 25 37 35 55 72 55 117 0 76 -68 143 -145 143 -22 0 -54 -9 -73 -20z"/>
<path d="M7022 4910 c-88 -54 -96 -166 -17 -240 23 -21 36 -25 90 -25 54 0 67
4 90 25 37 35 55 72 55 117 0 76 -68 143 -145 143 -22 0 -54 -9 -73 -20z"/>
<path d="M8342 4910 c-52 -32 -74 -76 -69 -138 3 -46 9 -59 41 -90 34 -35 40
-37 100 -37 55 0 68 4 91 25 37 35 55 72 55 117 0 76 -68 143 -145 143 -22 0
-54 -9 -73 -20z"/>
<path d="M9002 4910 c-88 -54 -96 -166 -17 -240 23 -21 36 -25 90 -25 54 0 67
4 90 25 37 35 55 72 55 117 0 76 -68 143 -145 143 -22 0 -54 -9 -73 -20z"/>
<path d="M9662 4910 c-88 -54 -96 -166 -17 -240 23 -21 36 -25 90 -25 54 0 67
4 90 25 37 35 55 72 55 117 0 76 -68 143 -145 143 -22 0 -54 -9 -73 -20z"/>
<path d="M752 4580 c-52 -32 -74 -76 -69 -138 3 -46 9 -59 41 -90 34 -35 40
-37 100 -37 55 0 68 4 91 25 37 35 55 72 55 117 0 76 -68 143 -145 143 -22 0
-54 -9 -73 -20z"/>
<path d="M1082 4580 c-88 -54 -96 -166 -17 -240 23 -21 36 -25 90 -25 54 0 67
4 90 25 37 35 55 72 55 117 0 76 -68 143 -145 143 -22 0 -54 -9 -73 -20z"/>
<path d="M2072 4580 c-88 -54 -96 -166 -17 -240 23 -21 36 -25 90 -25 54 0 67
4 90 25 37 35 55 72 55 117 0 76 -68 143 -145 143 -22 0 -54 -9 -73 -20z"/>
<path d="M2402 4580 c-88 -54 -96 -166 -17 -240 23 -21 36 -25 90 -25 54 0 67
4 90 25 37 35 55 72 55 117 0 76 -68 143 -145 143 -22 0 -54 -9 -73 -20z"/>
<path d="M3392 4580 c-88 -54 -96 -166 -17 -240 23 -21 36 -25 90 -25 54 0 67
4 90 25 37 35 55 72 55 117 0 76 -68 143 -145 143 -22 0 -54 -9 -73 -20z"/>
<path d="M3722 4580 c-88 -54 -96 -166 -17 -240 23 -21 36 -25 90 -25 54 0 67
4 90 25 37 35 55 72 55 117 0 76 -68 143 -145 143 -22 0 -54 -9 -73 -20z"/>
<path d="M4382 4580 c-88 -54 -96 -166 -17 -240 23 -21 36 -25 90 -25 54 0 67
4 90 25 37 35 55 72 55 117 0 76 -68 143 -145 143 -22 0 -54 -9 -73 -20z"/>
<path d="M5042 4580 c-88 -54 -96 -166 -17 -240 23 -21 36 -25 90 -25 54 0 67
4 90 25 37 35 55 72 55 117 0 76 -68 143 -145 143 -22 0 -54 -9 -73 -20z"/>
<path d="M5375 4581 c-49 -30 -68 -58 -73 -109 -5 -55 10 -92 53 -132 23 -21
36 -25 90 -25 54 0 67 4 90 25 37 35 55 72 55 117 0 106 -126 179 -215 124z"/>
<path d="M6032 4580 c-52 -32 -74 -76 -69 -138 3 -46 9 -59 41 -90 34 -35 40
-37 100 -37 55 0 68 4 91 25 37 35 55 72 55 117 0 76 -68 143 -145 143 -22 0
-54 -9 -73 -20z"/>
<path d="M6692 4580 c-88 -54 -96 -166 -17 -240 23 -21 36 -25 90 -25 54 0 67
4 90 25 37 35 55 72 55 117 0 76 -68 143 -145 143 -22 0 -54 -9 -73 -20z"/>
<path d="M7022 4580 c-88 -54 -96 -166 -17 -240 23 -21 36 -25 90 -25 54 0 67
4 90 25 37 35 55 72 55 117 0 76 -68 143 -145 143 -22 0 -54 -9 -73 -20z"/>
<path d="M8015 4581 c-49 -30 -68 -58 -73 -109 -5 -55 10 -92 53 -132 23 -21
36 -25 90 -25 54 0 67 4 90 25 37 35 55 72 55 117 0 106 -126 179 -215 124z"/>
<path d="M8672 4580 c-88 -54 -96 -166 -17 -240 23 -21 36 -25 90 -25 54 0 67
4 90 25 37 35 55 72 55 117 0 76 -68 143 -145 143 -22 0 -54 -9 -73 -20z"/>
<path d="M9002 4580 c-88 -54 -96 -166 -17 -240 23 -21 36 -25 90 -25 54 0 67
4 90 25 37 35 55 72 55 117 0 76 -68 143 -145 143 -22 0 -54 -9 -73 -20z"/>
<path d="M422 4250 c-88 -54 -96 -166 -17 -240 23 -21 36 -25 90 -25 54 0 67
4 90 25 37 35 55 72 55 117 0 76 -68 143 -145 143 -22 0 -54 -9 -73 -20z"/>
<path d="M2072 4250 c-88 -54 -96 -166 -17 -240 23 -21 36 -25 91 -25 60 0 66
2 100 37 32 31 38 44 41 90 3 41 -1 60 -16 86 -28 43 -77 72 -126 72 -22 0
-54 -9 -73 -20z"/>
<path d="M2732 4250 c-88 -54 -96 -166 -17 -240 23 -21 36 -25 90 -25 54 0 67
4 90 25 37 35 55 72 55 117 0 76 -68 143 -145 143 -22 0 -54 -9 -73 -20z"/>
<path d="M3062 4250 c-88 -54 -96 -166 -17 -240 23 -21 36 -25 90 -25 54 0 67
4 90 25 37 35 55 72 55 117 0 76 -68 143 -145 143 -22 0 -54 -9 -73 -20z"/>
<path d="M3392 4250 c-88 -54 -96 -166 -17 -240 23 -21 36 -25 90 -25 54 0 67
4 90 25 37 35 55 72 55 117 0 76 -68 143 -145 143 -22 0 -54 -9 -73 -20z"/>
<path d="M3722 4250 c-88 -54 -96 -166 -18 -239 19 -18 40 -25 78 -28 62 -5
106 18 138 69 40 66 16 156 -52 198 -19 11 -51 20 -73 20 -22 0 -54 -9 -73
-20z"/>
<path d="M5372 4250 c-88 -54 -96 -166 -17 -240 23 -21 36 -25 90 -25 54 0 67
4 90 25 37 35 55 72 55 117 0 76 -68 143 -145 143 -22 0 -54 -9 -73 -20z"/>
<path d="M5702 4250 c-88 -54 -96 -166 -17 -240 23 -21 36 -25 90 -25 54 0 67
4 90 25 37 35 55 72 55 117 0 76 -68 143 -145 143 -22 0 -54 -9 -73 -20z"/>
<path d="M6032 4250 c-88 -54 -96 -166 -17 -240 23 -21 36 -25 90 -25 54 0 67
4 90 25 37 35 55 72 55 117 0 76 -68 143 -145 143 -22 0 -54 -9 -73 -20z"/>
<path d="M6692 4250 c-18 -11 -41 -34 -52 -52 -40 -66 -17 -155 52 -199 46
-28 128 -22 164 12 102 95 45 259 -91 259 -22 0 -54 -9 -73 -20z"/>
<path d="M7682 4250 c-88 -54 -96 -166 -17 -240 23 -21 36 -25 90 -25 54 0 67
4 90 25 37 35 55 72 55 117 0 76 -68 143 -145 143 -22 0 -54 -9 -73 -20z"/>
<path d="M8012 4250 c-88 -54 -96 -166 -17 -240 23 -21 36 -25 90 -25 54 0 67
4 90 25 37 35 55 72 55 117 0 76 -68 143 -145 143 -22 0 -54 -9 -73 -20z"/>
<path d="M8342 4250 c-88 -54 -96 -166 -17 -240 23 -21 36 -25 90 -25 54 0 67
4 90 25 37 35 55 72 55 117 0 76 -68 143 -145 143 -22 0 -54 -9 -73 -20z"/>
<path d="M9005 4251 c-49 -30 -68 -58 -73 -109 -5 -54 10 -92 52 -131 36 -34
118 -40 164 -12 43 28 72 77 72 126 0 108 -125 182 -215 126z"/>
<path d="M9332 4250 c-18 -11 -41 -34 -52 -52 -40 -66 -17 -155 52 -199 46
-28 128 -22 164 12 102 95 45 259 -91 259 -22 0 -54 -9 -73 -20z"/>
<path d="M9662 4250 c-88 -54 -96 -166 -17 -240 23 -21 36 -25 90 -25 54 0 67
4 90 25 37 35 55 72 55 117 0 76 -68 143 -145 143 -22 0 -54 -9 -73 -20z"/>
<path d="M422 3920 c-88 -54 -96 -166 -17 -240 23 -21 36 -25 90 -25 54 0 67
4 90 25 37 35 55 72 55 117 0 76 -68 143 -145 143 -22 0 -54 -9 -73 -20z"/>
<path d="M754 3921 c-56 -34 -77 -75 -72 -137 4 -47 10 -61 42 -92 34 -35 40
-37 100 -37 55 0 68 4 91 25 37 35 55 72 55 117 0 107 -126 179 -216 124z"/>
<path d="M1412 3920 c-88 -54 -96 -166 -17 -240 23 -21 36 -25 90 -25 54 0 67
4 90 25 37 35 55 72 55 117 0 76 -68 143 -145 143 -22 0 -54 -9 -73 -20z"/>
<path d="M1742 3920 c-88 -54 -96 -166 -17 -240 23 -21 36 -25 90 -25 54 0 67
4 90 25 38 36 55 73 55 121 0 105 -127 174 -218 119z"/>
<path d="M2072 3920 c-88 -54 -96 -166 -17 -240 23 -21 36 -25 90 -25 54 0 67
4 90 25 37 35 55 72 55 117 0 76 -68 143 -145 143 -22 0 -54 -9 -73 -20z"/>
<path d="M2402 3920 c-52 -32 -74 -76 -69 -138 3 -46 9 -59 41 -90 34 -35 40
-37 100 -37 55 0 68 4 91 25 37 35 55 72 55 117 0 76 -68 143 -145 143 -22 0
-54 -9 -73 -20z"/>
<path d="M3394 3921 c-56 -34 -77 -75 -72 -137 4 -47 10 -61 41 -91 30 -31 44
-37 89 -40 62 -5 106 17 138 69 75 123 -74 273 -196 199z"/>
<path d="M4382 3920 c-88 -54 -96 -166 -17 -240 23 -21 36 -25 90 -25 54 0 67
4 90 25 38 36 55 73 55 121 0 105 -127 174 -218 119z"/>
<path d="M4712 3920 c-88 -54 -96 -166 -17 -240 23 -21 36 -25 90 -25 54 0 67
4 90 25 37 35 55 72 55 117 0 76 -68 143 -145 143 -22 0 -54 -9 -73 -20z"/>
<path d="M5042 3920 c-52 -32 -74 -76 -69 -138 3 -46 9 -59 41 -90 34 -35 40
-37 100 -37 55 0 68 4 91 25 37 35 55 72 55 117 0 76 -68 143 -145 143 -22 0
-54 -9 -73 -20z"/>
<path d="M5372 3920 c-52 -32 -74 -76 -69 -138 3 -46 9 -59 41 -90 34 -35 40
-37 100 -37 55 0 68 4 91 25 37 35 55 72 55 117 0 76 -68 143 -145 143 -22 0
-54 -9 -73 -20z"/>
<path d="M5702 3920 c-88 -54 -96 -166 -17 -240 23 -21 36 -25 90 -25 54 0 67
4 90 25 37 35 55 72 55 117 0 76 -68 143 -145 143 -22 0 -54 -9 -73 -20z"/>
<path d="M6034 3921 c-56 -34 -77 -75 -72 -137 4 -47 10 -61 42 -92 34 -35 40
-37 100 -37 55 0 68 4 91 25 37 35 55 72 55 117 0 107 -126 179 -216 124z"/>
<path d="M6362 3920 c-88 -54 -96 -166 -17 -240 23 -21 36 -25 90 -25 54 0 67
4 90 25 37 35 55 72 55 117 0 76 -68 143 -145 143 -22 0 -54 -9 -73 -20z"/>
<path d="M6692 3920 c-88 -54 -96 -166 -17 -240 23 -21 36 -25 90 -25 54 0 67
4 90 25 37 35 55 72 55 117 0 76 -68 143 -145 143 -22 0 -54 -9 -73 -20z"/>
<path d="M7682 3920 c-52 -32 -74 -76 -69 -138 3 -46 9 -59 41 -90 34 -35 40
-37 100 -37 55 0 68 4 91 25 37 35 55 72 55 117 0 76 -68 143 -145 143 -22 0
-54 -9 -73 -20z"/>
<path d="M8674 3921 c-56 -34 -77 -75 -72 -137 4 -47 10 -61 42 -92 34 -35 40
-37 100 -37 55 0 68 4 91 25 37 35 55 72 55 117 0 107 -126 179 -216 124z"/>
<path d="M9662 3920 c-88 -54 -96 -166 -17 -240 23 -21 36 -25 90 -25 54 0 67
4 90 25 38 36 55 73 55 121 0 105 -127 174 -218 119z"/>
<path d="M422 3590 c-68 -42 -92 -132 -52 -198 32 -51 76 -74 138 -69 56 4 91
27 118 79 47 91 -27 208 -131 208 -22 0 -54 -9 -73 -20z"/>
<path d="M1082 3590 c-88 -54 -96 -166 -17 -240 23 -21 36 -25 90 -25 54 0 67
4 90 25 37 35 55 72 55 117 0 76 -68 143 -145 143 -22 0 -54 -9 -73 -20z"/>
<path d="M1412 3590 c-88 -54 -96 -166 -17 -240 23 -21 36 -25 90 -25 54 0 67
4 90 25 37 35 55 72 55 117 0 76 -68 143 -145 143 -22 0 -54 -9 -73 -20z"/>
<path d="M3395 3591 c-49 -30 -68 -58 -73 -109 -5 -54 10 -92 52 -131 36 -34
118 -40 164 -12 43 28 72 77 72 126 0 108 -125 182 -215 126z"/>
<path d="M4052 3590 c-88 -54 -96 -166 -17 -240 23 -21 36 -25 90 -25 54 0 67
4 90 25 37 35 55 72 55 117 0 76 -68 143 -145 143 -22 0 -54 -9 -73 -20z"/>
<path d="M5042 3590 c-88 -54 -96 -166 -17 -240 23 -21 36 -25 90 -25 54 0 67
4 90 25 37 35 55 72 55 117 0 76 -68 143 -145 143 -22 0 -54 -9 -73 -20z"/>
<path d="M5375 3591 c-49 -30 -68 -58 -73 -109 -5 -55 10 -92 53 -132 23 -21
36 -25 90 -25 54 0 67 4 90 25 37 35 55 72 55 117 0 106 -126 179 -215 124z"/>
<path d="M5702 3590 c-18 -11 -41 -34 -52 -52 -40 -66 -17 -155 52 -199 46
-28 128 -22 164 12 102 95 45 259 -91 259 -22 0 -54 -9 -73 -20z"/>
<path d="M6692 3590 c-88 -54 -96 -166 -17 -240 23 -21 36 -25 90 -25 54 0 67
4 90 25 37 35 55 72 55 117 0 76 -68 143 -145 143 -22 0 -54 -9 -73 -20z"/>
<path d="M7022 3590 c-18 -11 -41 -34 -52 -52 -40 -66 -17 -155 52 -199 46
-28 128 -22 164 12 102 95 45 259 -91 259 -22 0 -54 -9 -73 -20z"/>
<path d="M7352 3590 c-88 -54 -96 -166 -18 -239 36 -34 118 -40 164 -12 125
79 73 271 -73 271 -22 0 -54 -9 -73 -20z"/>
<path d="M7682 3590 c-88 -54 -96 -166 -17 -240 23 -21 36 -25 90 -25 54 0 67
4 90 25 37 35 55 72 55 117 0 76 -68 143 -145 143 -22 0 -54 -9 -73 -20z"/>
<path d="M8012 3590 c-88 -54 -96 -166 -17 -240 23 -21 36 -25 90 -25 54 0 67
4 90 25 37 35 55 72 55 117 0 76 -68 143 -145 143 -22 0 -54 -9 -73 -20z"/>
<path d="M425 3261 c-49 -30 -68 -58 -73 -109 -5 -55 10 -92 53 -132 23 -21
36 -25 90 -25 54 0 67 4 90 25 37 35 55 72 55 117 0 106 -126 179 -215 124z"/>
<path d="M1414 3261 c-91 -56 -100 -165 -19 -241 23 -21 36 -25 90 -25 54 0
67 4 90 25 37 35 55 72 55 117 0 107 -126 179 -216 124z"/>
<path d="M2072 3260 c-88 -54 -96 -166 -17 -240 23 -21 36 -25 90 -25 54 0 67
4 90 25 43 40 58 77 53 132 -10 103 -127 162 -216 108z"/>
<path d="M2402 3260 c-88 -54 -96 -166 -17 -240 23 -21 36 -25 90 -25 54 0 67
4 90 25 37 35 55 72 55 117 0 76 -68 143 -145 143 -22 0 -54 -9 -73 -20z"/>
<path d="M2734 3261 c-91 -56 -100 -165 -19 -241 23 -21 36 -25 90 -25 54 0
67 4 90 25 37 35 55 72 55 117 0 107 -126 179 -216 124z"/>
<path d="M3065 3261 c-49 -30 -68 -58 -73 -109 -5 -55 10 -92 53 -132 23 -21
36 -25 90 -25 54 0 67 4 90 25 37 35 55 72 55 117 0 106 -126 179 -215 124z"/>
<path d="M3722 3260 c-88 -54 -96 -166 -17 -240 23 -21 36 -25 90 -25 54 0 67
4 90 25 37 35 55 72 55 117 0 76 -68 143 -145 143 -22 0 -54 -9 -73 -20z"/>
<path d="M4052 3260 c-88 -54 -96 -166 -17 -240 23 -21 36 -25 90 -25 54 0 67
4 90 25 37 35 55 72 55 117 0 76 -68 143 -145 143 -22 0 -54 -9 -73 -20z"/>
<path d="M5374 3261 c-91 -56 -100 -165 -19 -241 23 -21 36 -25 90 -25 54 0
67 4 90 25 37 35 55 72 55 117 0 107 -126 179 -216 124z"/>
<path d="M5705 3261 c-49 -30 -68 -58 -73 -109 -5 -55 10 -92 53 -132 23 -21
36 -25 90 -25 54 0 67 4 90 25 37 35 55 72 55 117 0 106 -126 179 -215 124z"/>
<path d="M6694 3261 c-91 -56 -100 -165 -19 -241 23 -21 36 -25 90 -25 54 0
67 4 90 25 37 35 55 72 55 117 0 107 -126 179 -216 124z"/>
<path d="M7022 3260 c-88 -54 -96 -166 -17 -240 23 -21 36 -25 90 -25 54 0 67
4 90 25 37 35 55 72 55 117 0 76 -68 143 -145 143 -22 0 -54 -9 -73 -20z"/>
<path d="M7352 3260 c-88 -54 -96 -166 -17 -240 23 -21 36 -25 90 -25 54 0 67
4 90 25 43 40 58 77 53 132 -10 103 -127 162 -216 108z"/>
<path d="M7682 3260 c-88 -54 -96 -166 -17 -240 23 -21 36 -25 90 -25 54 0 67
4 90 25 37 35 55 72 55 117 0 76 -68 143 -145 143 -22 0 -54 -9 -73 -20z"/>
<path d="M8014 3261 c-91 -56 -100 -165 -19 -241 23 -21 36 -25 90 -25 54 0
67 4 90 25 37 35 55 72 55 117 0 107 -126 179 -216 124z"/>
<path d="M8345 3261 c-49 -30 -68 -58 -73 -109 -5 -55 10 -92 53 -132 23 -21
36 -25 90 -25 54 0 67 4 90 25 37 35 55 72 55 117 0 106 -126 179 -215 124z"/>
<path d="M9002 3260 c-88 -54 -96 -166 -17 -240 23 -21 36 -25 90 -25 54 0 67
4 90 25 37 35 55 72 55 117 0 76 -68 143 -145 143 -22 0 -54 -9 -73 -20z"/>
<path d="M9332 3260 c-88 -54 -96 -166 -17 -240 23 -21 36 -25 90 -25 54 0 67
4 90 25 37 35 55 72 55 117 0 76 -68 143 -145 143 -22 0 -54 -9 -73 -20z"/>
<path d="M9662 3260 c-52 -32 -74 -76 -69 -138 3 -46 9 -59 41 -90 34 -35 40
-37 100 -37 55 0 68 4 91 25 37 35 55 72 55 117 0 76 -68 143 -145 143 -22 0
-54 -9 -73 -20z"/>
<path d="M3062 2930 c-88 -54 -96 -166 -17 -240 23 -21 36 -25 90 -25 54 0 67
4 90 25 37 35 55 72 55 117 0 76 -68 143 -145 143 -22 0 -54 -9 -73 -20z"/>
<path d="M4382 2930 c-88 -54 -96 -166 -17 -240 23 -21 36 -25 90 -25 54 0 67
4 90 25 37 35 55 72 55 117 0 76 -68 143 -145 143 -22 0 -54 -9 -73 -20z"/>
<path d="M4712 2930 c-88 -54 -96 -166 -17 -240 23 -21 36 -25 90 -25 54 0 67
4 90 25 37 35 55 72 55 117 0 76 -68 143 -145 143 -22 0 -54 -9 -73 -20z"/>
<path d="M6035 2931 c-49 -30 -68 -58 -73 -109 -5 -55 10 -92 53 -132 23 -21
36 -25 90 -25 54 0 67 4 90 25 37 35 55 72 55 117 0 106 -126 179 -215 124z"/>
<path d="M6362 2930 c-88 -54 -96 -166 -17 -240 23 -21 36 -25 90 -25 54 0 67
4 90 25 37 35 55 72 55 117 0 76 -68 143 -145 143 -22 0 -54 -9 -73 -20z"/>
<path d="M7022 2930 c-88 -54 -96 -166 -17 -240 23 -21 36 -25 90 -25 54 0 67
4 90 25 37 35 55 72 55 117 0 76 -68 143 -145 143 -22 0 -54 -9 -73 -20z"/>
<path d="M8342 2930 c-88 -54 -96 -166 -17 -240 23 -21 36 -25 90 -25 54 0 67
4 90 25 37 35 55 72 55 117 0 76 -68 143 -145 143 -22 0 -54 -9 -73 -20z"/>
<path d="M8675 2931 c-49 -30 -68 -58 -73 -109 -5 -55 10 -92 53 -132 23 -21
36 -25 90 -25 54 0 67 4 90 25 37 35 55 72 55 117 0 106 -126 179 -215 124z"/>
<path d="M805 2630 c-209 -43 -375 -192 -447 -399 l-23 -66 0 -680 c0 -641 1
-683 19 -735 66 -192 184 -315 374 -389 l67 -26 690 0 690 0 67 26 c186 72
308 197 370 378 l23 66 0 680 c0 641 -1 683 -19 735 -66 192 -184 315 -374
389 l-67 26 -665 2 c-366 0 -683 -2 -705 -7z m1265 -361 c116 -56 190 -142
226 -264 12 -45 14 -128 12 -541 l-3 -489 -36 -75 c-42 -88 -101 -151 -179
-189 -103 -52 -110 -52 -630 -49 l-485 3 -75 36 c-95 46 -153 104 -199 199
l-36 75 0 510 0 510 36 75 c41 86 101 150 174 188 101 52 95 51 625 49 l495
-2 75 -36z"/>
<path d="M1189 1973 c-56 -9 -131 -66 -163 -123 l-31 -55 0 -310 0 -310 31
-55 c38 -67 110 -116 188 -125 28 -4 170 -5 316 -3 l265 3 55 31 c61 35 113
106 124 171 3 21 6 157 5 303 0 284 -3 306 -53 379 -15 21 -50 51 -79 67 l-52
29 -290 1 c-159 1 -302 0 -316 -3z"/>
<path d="M3062 2600 c-88 -54 -96 -166 -17 -240 23 -21 36 -25 90 -25 54 0 67
4 90 25 37 35 55 72 55 117 0 76 -68 143 -145 143 -22 0 -54 -9 -73 -20z"/>
<path d="M4712 2600 c-88 -54 -96 -166 -17 -240 23 -21 36 -25 90 -25 54 0 67
4 90 25 37 35 55 72 55 117 0 76 -68 143 -145 143 -22 0 -54 -9 -73 -20z"/>
<path d="M5042 2600 c-88 -54 -96 -166 -17 -240 23 -21 36 -25 90 -25 54 0 67
4 90 25 37 35 55 72 55 117 0 76 -68 143 -145 143 -22 0 -54 -9 -73 -20z"/>
<path d="M5372 2600 c-88 -54 -96 -166 -17 -240 23 -21 36 -25 90 -25 54 0 67
4 90 25 37 35 55 72 55 117 0 76 -68 143 -145 143 -22 0 -54 -9 -73 -20z"/>
<path d="M6032 2600 c-18 -11 -41 -34 -52 -52 -40 -66 -17 -155 52 -199 46
-28 128 -22 164 12 102 95 45 259 -91 259 -22 0 -54 -9 -73 -20z"/>
<path d="M6365 2601 c-49 -30 -68 -58 -73 -109 -5 -55 10 -92 53 -132 23 -21
36 -25 90 -25 54 0 67 4 90 25 37 35 55 72 55 117 0 106 -126 179 -215 124z"/>
<path d="M6692 2600 c-88 -54 -96 -166 -17 -240 23 -21 36 -25 90 -25 54 0 67
4 90 25 37 35 55 72 55 117 0 76 -68 143 -145 143 -22 0 -54 -9 -73 -20z"/>
<path d="M7022 2600 c-88 -54 -96 -166 -17 -240 23 -21 36 -25 90 -25 54 0 67
4 90 25 37 35 55 72 55 117 0 76 -68 143 -145 143 -22 0 -54 -9 -73 -20z"/>
<path d="M7682 2600 c-88 -54 -96 -166 -17 -240 23 -21 36 -25 90 -25 54 0 67
4 90 25 37 35 55 72 55 117 0 76 -68 143 -145 143 -22 0 -54 -9 -73 -20z"/>
<path d="M8342 2600 c-88 -54 -96 -166 -17 -240 23 -21 36 -25 90 -25 54 0 67
4 90 25 37 35 55 72 55 117 0 76 -68 143 -145 143 -22 0 -54 -9 -73 -20z"/>
<path d="M8672 2600 c-18 -11 -41 -34 -52 -52 -40 -66 -17 -155 52 -199 46
-28 128 -22 164 12 102 95 45 259 -91 259 -22 0 -54 -9 -73 -20z"/>
<path d="M9005 2601 c-49 -30 -68 -58 -73 -109 -5 -55 10 -92 53 -132 23 -21
36 -25 90 -25 54 0 67 4 90 25 37 35 55 72 55 117 0 106 -126 179 -215 124z"/>
<path d="M3062 2270 c-52 -32 -74 -76 -69 -138 3 -46 9 -59 41 -90 34 -35 40
-37 100 -37 55 0 68 4 91 25 37 35 55 72 55 117 0 108 -126 179 -218 123z"/>
<path d="M3392 2270 c-88 -54 -96 -166 -18 -239 36 -34 118 -40 164 -12 43 28
72 77 72 126 0 110 -125 181 -218 125z"/>
<path d="M4382 2270 c-88 -54 -96 -166 -17 -240 23 -21 36 -25 90 -25 54 0 67
4 90 25 37 35 55 72 55 117 0 108 -126 179 -218 123z"/>
<path d="M4712 2270 c-88 -54 -96 -166 -17 -240 23 -21 36 -25 90 -25 54 0 67
4 90 25 37 35 55 72 55 117 0 108 -126 179 -218 123z"/>
<path d="M5372 2270 c-52 -32 -74 -76 -69 -138 3 -46 9 -59 41 -90 34 -35 40
-37 100 -37 55 0 68 4 91 25 37 35 55 72 55 117 0 108 -126 179 -218 123z"/>
<path d="M5702 2270 c-52 -32 -74 -76 -69 -138 3 -46 9 -59 41 -90 34 -35 40
-37 100 -37 55 0 68 4 91 25 37 35 55 72 55 117 0 108 -126 179 -218 123z"/>
<path d="M7022 2270 c-88 -54 -96 -166 -17 -240 23 -21 36 -25 90 -25 54 0 67
4 90 25 37 35 55 72 55 117 0 108 -126 179 -218 123z"/>
<path d="M8342 2270 c-52 -32 -74 -76 -69 -138 3 -46 9 -59 41 -90 34 -35 40
-37 100 -37 55 0 68 4 91 25 37 35 55 72 55 117 0 108 -126 179 -218 123z"/>
<path d="M9332 2270 c-88 -54 -96 -166 -17 -240 23 -21 36 -25 90 -25 54 0 67
4 90 25 37 35 55 72 55 117 0 108 -126 179 -218 123z"/>
<path d="M9662 2270 c-88 -54 -96 -166 -17 -240 23 -21 36 -25 90 -25 54 0 67
4 90 25 37 35 55 72 55 117 0 108 -126 179 -218 123z"/>
<path d="M3392 1940 c-52 -32 -74 -76 -69 -138 3 -46 9 -59 41 -90 34 -35 40
-37 100 -37 55 0 68 4 91 25 37 35 55 72 55 117 0 108 -126 179 -218 123z"/>
<path d="M3722 1940 c-52 -32 -74 -76 -69 -138 3 -46 9 -59 41 -90 34 -35 40
-37 100 -37 55 0 68 4 91 25 37 35 55 72 55 117 0 108 -126 179 -218 123z"/>
<path d="M4052 1940 c-88 -54 -96 -166 -17 -240 23 -21 36 -25 90 -25 54 0 67
4 90 25 37 35 55 72 55 117 0 108 -126 179 -218 123z"/>
<path d="M4382 1940 c-88 -54 -96 -166 -17 -240 23 -21 36 -25 90 -25 54 0 67
4 90 25 37 35 55 72 55 117 0 108 -126 179 -218 123z"/>
<path d="M4712 1940 c-88 -54 -96 -166 -17 -240 23 -21 36 -25 90 -25 54 0 67
4 90 25 37 35 55 72 55 117 0 108 -126 179 -218 123z"/>
<path d="M5702 1940 c-88 -54 -96 -166 -18 -239 36 -34 118 -40 164 -12 43 28
72 77 72 126 0 110 -125 181 -218 125z"/>
<path d="M6032 1940 c-52 -32 -74 -76 -69 -138 3 -46 9 -59 41 -90 34 -35 40
-37 100 -37 55 0 68 4 91 25 37 35 55 72 55 117 0 108 -126 179 -218 123z"/>
<path d="M6692 1940 c-88 -54 -96 -166 -17 -240 23 -21 36 -25 90 -25 54 0 67
4 90 25 37 35 55 72 55 117 0 108 -126 179 -218 123z"/>
<path d="M7022 1940 c-88 -54 -96 -166 -17 -240 23 -21 36 -25 90 -25 54 0 67
4 90 25 37 35 55 72 55 117 0 108 -126 179 -218 123z"/>
<path d="M7352 1940 c-88 -54 -96 -166 -17 -240 23 -21 36 -25 90 -25 54 0 67
4 90 25 37 35 55 72 55 117 0 108 -126 179 -218 123z"/>
<path d="M7682 1940 c-88 -54 -96 -166 -17 -240 23 -21 36 -25 90 -25 54 0 67
4 90 25 37 35 55 72 55 117 0 108 -126 179 -218 123z"/>
<path d="M8012 1940 c-88 -54 -96 -166 -17 -240 23 -21 36 -25 90 -25 54 0 67
4 90 25 37 35 55 72 55 117 0 108 -126 179 -218 123z"/>
<path d="M8342 1940 c-88 -54 -96 -166 -18 -239 36 -34 118 -40 164 -12 43 28
72 77 72 126 0 110 -125 181 -218 125z"/>
<path d="M8672 1940 c-52 -32 -74 -76 -69 -138 3 -46 9 -59 41 -90 34 -35 40
-37 100 -37 55 0 68 4 91 25 37 35 55 72 55 117 0 108 -126 179 -218 123z"/>
<path d="M9332 1940 c-88 -54 -96 -166 -17 -240 23 -21 36 -25 90 -25 54 0 67
4 90 25 37 35 55 72 55 117 0 108 -126 179 -218 123z"/>
<path d="M9662 1940 c-88 -54 -96 -166 -17 -240 23 -21 36 -25 90 -25 54 0 67
4 90 25 37 35 55 72 55 117 0 108 -126 179 -218 123z"/>
<path d="M3725 1611 c-49 -30 -68 -58 -73 -109 -5 -54 10 -92 52 -131 36 -34
118 -40 164 -12 43 28 72 77 72 126 0 108 -125 182 -215 126z"/>
<path d="M5372 1610 c-88 -54 -96 -166 -17 -240 23 -21 36 -25 90 -25 54 0 67
4 90 25 37 35 55 72 55 117 0 108 -126 179 -218 123z"/>
<path d="M5702 1610 c-88 -54 -96 -166 -17 -240 23 -21 36 -25 90 -25 54 0 67
4 90 25 37 35 55 72 55 117 0 108 -126 179 -218 123z"/>
<path d="M6692 1610 c-18 -11 -41 -34 -52 -52 -40 -66 -17 -155 52 -199 46
-28 128 -22 164 12 36 34 54 72 54 116 0 108 -126 179 -218 123z"/>
<path d="M7352 1610 c-88 -54 -96 -166 -17 -240 23 -21 36 -25 90 -25 54 0 67
4 90 25 37 35 55 72 55 117 0 108 -126 179 -218 123z"/>
<path d="M8672 1610 c-88 -54 -96 -166 -17 -240 23 -21 36 -25 90 -25 54 0 67
4 90 25 37 35 55 72 55 117 0 108 -126 179 -218 123z"/>
<path d="M9002 1610 c-88 -54 -96 -166 -18 -239 36 -34 118 -40 164 -12 43 28
72 77 72 126 0 110 -125 181 -218 125z"/>
<path d="M9662 1610 c-88 -54 -96 -166 -17 -240 23 -21 36 -25 90 -25 54 0 67
4 90 25 37 35 55 72 55 117 0 108 -126 179 -218 123z"/>
<path d="M3394 1281 c-56 -34 -77 -75 -72 -137 4 -47 10 -61 42 -92 34 -35 40
-37 100 -37 55 0 68 4 91 25 37 35 55 72 55 117 0 107 -126 179 -216 124z"/>
<path d="M3722 1280 c-88 -54 -96 -166 -17 -240 23 -21 36 -25 90 -25 54 0 67
4 90 25 37 35 55 72 55 117 0 108 -126 179 -218 123z"/>
<path d="M4052 1280 c-88 -54 -96 -166 -17 -240 23 -21 36 -25 90 -25 54 0 67
4 90 25 37 35 55 72 55 117 0 108 -126 179 -218 123z"/>
<path d="M4382 1280 c-88 -54 -96 -166 -17 -240 23 -21 36 -25 90 -25 54 0 67
4 90 25 38 36 55 73 55 121 0 105 -127 174 -218 119z"/>
<path d="M5372 1280 c-52 -32 -74 -76 -69 -138 3 -46 9 -59 41 -90 34 -35 40
-37 100 -37 55 0 68 4 91 25 37 35 55 72 55 117 0 76 -68 143 -145 143 -22 0
-54 -9 -73 -20z"/>
<path d="M5704 1281 c-91 -56 -100 -165 -19 -241 23 -21 36 -25 90 -25 54 0
67 4 90 25 37 35 55 72 55 117 0 107 -126 179 -216 124z"/>
<path d="M6692 1280 c-88 -54 -96 -166 -17 -240 23 -21 36 -25 90 -25 54 0 67
4 90 25 37 35 55 72 55 117 0 76 -68 143 -145 143 -22 0 -54 -9 -73 -20z"/>
<path d="M7352 1280 c-88 -54 -96 -166 -17 -240 23 -21 36 -25 90 -25 54 0 67
4 90 25 37 35 55 72 55 117 0 76 -68 143 -145 143 -22 0 -54 -9 -73 -20z"/>
<path d="M7682 1280 c-52 -32 -74 -76 -69 -138 3 -46 9 -59 41 -90 34 -35 40
-37 100 -37 55 0 68 4 91 25 37 35 55 72 55 117 0 76 -68 143 -145 143 -22 0
-54 -9 -73 -20z"/>
<path d="M8012 1280 c-52 -32 -74 -76 -69 -138 3 -46 9 -59 41 -90 34 -35 40
-37 100 -37 55 0 68 4 91 25 37 35 55 72 55 117 0 76 -68 143 -145 143 -22 0
-54 -9 -73 -20z"/>
<path d="M8344 1281 c-91 -56 -100 -165 -19 -241 23 -21 36 -25 90 -25 54 0
67 4 90 25 37 35 55 72 55 117 0 107 -126 179 -216 124z"/>
<path d="M8674 1281 c-56 -34 -77 -75 -72 -137 4 -47 10 -61 41 -91 30 -31 44
-37 89 -40 62 -5 106 17 138 69 75 123 -74 273 -196 199z"/>
<path d="M9002 1280 c-88 -54 -96 -166 -17 -240 23 -21 36 -25 90 -25 54 0 67
4 90 25 37 35 55 72 55 117 0 76 -68 143 -145 143 -22 0 -54 -9 -73 -20z"/>
<path d="M9332 1280 c-88 -54 -96 -166 -17 -240 23 -21 36 -25 90 -25 54 0 67
4 90 25 37 35 55 72 55 117 0 76 -68 143 -145 143 -22 0 -54 -9 -73 -20z"/>
<path d="M3062 950 c-18 -11 -41 -34 -52 -52 -40 -66 -17 -155 52 -199 46 -28
128 -22 164 12 102 95 45 259 -91 259 -22 0 -54 -9 -73 -20z"/>
<path d="M4052 950 c-88 -54 -96 -166 -17 -240 23 -21 36 -25 90 -25 54 0 67
4 90 25 37 35 55 72 55 117 0 76 -68 143 -145 143 -22 0 -54 -9 -73 -20z"/>
<path d="M5375 951 c-49 -30 -68 -58 -73 -109 -5 -55 10 -92 53 -132 23 -21
36 -25 90 -25 54 0 67 4 90 25 37 35 55 72 55 117 0 106 -126 179 -215 124z"/>
<path d="M6362 950 c-88 -54 -96 -166 -17 -240 23 -21 36 -25 90 -25 54 0 67
4 90 25 37 35 55 72 55 117 0 76 -68 143 -145 143 -22 0 -54 -9 -73 -20z"/>
<path d="M7352 950 c-88 -54 -96 -166 -18 -239 36 -34 118 -40 164 -12 125 79
73 271 -73 271 -22 0 -54 -9 -73 -20z"/>
<path d="M8675 951 c-49 -30 -68 -58 -73 -109 -5 -54 10 -92 52 -131 36 -34
118 -40 164 -12 43 28 72 77 72 126 0 108 -125 182 -215 126z"/>
<path d="M9002 950 c-88 -54 -96 -166 -18 -239 36 -34 118 -40 164 -12 125 79
73 271 -73 271 -22 0 -54 -9 -73 -20z"/>
<path d="M9662 950 c-88 -54 -96 -166 -17 -240 23 -21 36 -25 90 -25 54 0 67
4 90 25 37 35 55 72 55 117 0 76 -68 143 -145 143 -22 0 -54 -9 -73 -20z"/>
<path d="M3065 621 c-49 -30 -68 -58 -73 -109 -5 -55 10 -92 53 -132 23 -21
36 -25 90 -25 54 0 67 4 90 25 37 35 55 72 55 117 0 106 -126 179 -215 124z"/>
<path d="M3392 620 c-52 -32 -74 -76 -69 -138 3 -46 9 -59 41 -90 34 -35 40
-37 100 -37 55 0 68 4 91 25 37 35 55 72 55 117 0 108 -126 179 -218 123z"/>
<path d="M4054 621 c-91 -56 -100 -165 -19 -241 23 -21 36 -25 90 -25 54 0 67
4 90 25 37 35 55 72 55 117 0 107 -126 179 -216 124z"/>
<path d="M5374 621 c-91 -56 -100 -165 -19 -241 23 -21 36 -25 90 -25 54 0 67
4 90 25 37 35 55 72 55 117 0 107 -126 179 -216 124z"/>
<path d="M6034 621 c-56 -34 -77 -75 -72 -137 4 -47 10 -61 42 -92 34 -35 40
-37 100 -37 55 0 68 4 91 25 37 35 55 72 55 117 0 107 -126 179 -216 124z"/>
<path d="M6694 621 c-91 -56 -100 -165 -19 -241 23 -21 36 -25 90 -25 54 0 67
4 90 25 37 35 55 72 55 117 0 107 -126 179 -216 124z"/>
<path d="M7352 620 c-88 -54 -96 -166 -17 -240 23 -21 36 -25 90 -25 54 0 67
4 90 25 43 40 58 77 53 132 -10 103 -127 162 -216 108z"/>
<path d="M8012 620 c-88 -54 -96 -166 -17 -240 23 -21 36 -25 90 -25 54 0 67
4 90 25 37 35 55 72 55 117 0 108 -126 179 -218 123z"/>
<path d="M8345 621 c-49 -30 -68 -58 -73 -109 -5 -55 10 -92 53 -132 23 -21
36 -25 90 -25 54 0 67 4 90 25 37 35 55 72 55 117 0 106 -126 179 -215 124z"/>
<path d="M9002 620 c-88 -54 -96 -166 -17 -240 23 -21 36 -25 90 -25 54 0 67
4 90 25 37 35 55 72 55 117 0 108 -126 179 -218 123z"/>
</g>
</svg>
